<svg width="63" height="65" viewBox="0 0 63 65" fill="none" xmlns="http://www.w3.org/2000/svg">
<path d="M42.9186 51.3372C53.9193 44.9859 57.6884 30.9193 51.3372 19.9186C44.9859 8.91785 30.9193 5.14873 19.9186 11.5C8.91785 17.8513 5.14873 31.9179 11.5 42.9186C17.8513 53.9193 31.9179 57.6884 42.9186 51.3372Z" fill="#FF4B2B"/>
<path fill-rule="evenodd" clip-rule="evenodd" d="M44.2316 48.1944C45.2245 47.3612 46.705 47.4907 47.5382 48.4837L57.3447 60.1706C58.1779 61.1635 58.0482 62.6439 57.0552 63.4771C56.0622 64.3103 54.5819 64.1809 53.7488 63.188L43.9423 51.5011C43.109 50.5081 43.2385 49.0277 44.2316 48.1944Z" fill="#FF4B2B"/>
<path d="M41.1917 48.3522C50.5424 42.9536 53.7461 30.997 48.3475 21.6464C42.9489 12.2958 30.9924 9.09204 21.6417 14.4906C12.2911 19.8892 9.08735 31.8458 14.4859 41.1964C19.8845 50.547 31.8411 53.7508 41.1917 48.3522Z" fill="#FFF1EA"/>
<path d="M25.6626 30.376H19.5562C19.1929 30.376 18.8984 30.6705 18.8984 31.0337V40.282C18.8984 40.6453 19.1929 40.9398 19.5562 40.9398H25.6626C26.0259 40.9398 26.3204 40.6453 26.3204 40.282V31.0337C26.3204 30.6705 26.0259 30.376 25.6626 30.376Z" fill="black"/>
<path d="M18.8555 32.0266H26.3186" stroke="#FFF1EA" stroke-linecap="round"/>
<path d="M34.0728 26.2627H27.9663C27.6031 26.2627 27.3086 26.5572 27.3086 26.9204V40.2823C27.3086 40.6456 27.6031 40.9401 27.9663 40.9401H34.0728C34.436 40.9401 34.7305 40.6456 34.7305 40.2823V26.9204C34.7305 26.5572 34.436 26.2627 34.0728 26.2627Z" fill="#FEBC1D"/>
<path d="M42.4829 22.4531H36.3765C36.0132 22.4531 35.7188 22.7476 35.7188 23.1109V40.282C35.7188 40.6453 36.0132 40.9397 36.3765 40.9397H42.4829C42.8462 40.9397 43.1407 40.6453 43.1407 40.282V23.1109C43.1407 22.7476 42.8462 22.4531 42.4829 22.4531Z" fill="#FF4B2B"/>
<path d="M35.7188 24.1445H43.1817" stroke="#FFF1EA" stroke-linecap="round"/>
<path d="M27.3398 27.9414H34.803" stroke="#FFF1EA" stroke-linecap="round"/>
</svg>
