<svg width="313" height="478" viewBox="0 0 313 478" fill="none" xmlns="http://www.w3.org/2000/svg">
<path fill-rule="evenodd" clip-rule="evenodd" d="M139.2 54.4509L284.655 1.10669C285.487 0.801776 286.381 0.702212 287.26 0.816449C288.139 0.930687 288.978 1.25535 289.704 1.76288C290.431 2.27041 291.025 2.94581 291.435 3.73173C291.844 4.51766 292.059 5.39091 292.059 6.27733V60.0412C292.058 61.3296 291.681 62.5896 290.974 63.6668C290.267 64.744 289.261 65.5914 288.08 66.1052L248.382 83.3689C255.004 88.1717 261.279 93.5156 267.138 99.372C296.486 128.707 312.982 168.496 313 209.99C313.013 240.946 303.846 271.21 286.658 296.956C269.47 322.701 245.032 342.77 216.437 354.626C187.841 366.481 156.372 369.59 126.01 363.559C95.6474 357.528 67.7555 342.628 45.8618 320.744C23.9681 298.86 9.0562 270.974 3.01213 240.615C-3.03194 210.255 0.0633222 178.784 11.9064 150.184C23.7496 121.583 43.8085 97.1372 69.5463 79.9378C90.5077 65.9302 114.469 57.2416 139.362 54.4991L139.2 54.4509ZM106.868 284.27C121.559 294.087 138.831 299.326 156.5 299.326V299.258C168.229 299.267 179.844 296.965 190.682 292.483C201.521 288.001 211.369 281.427 219.666 273.136C227.962 264.846 234.544 255.002 239.034 244.167C243.525 233.333 245.836 221.719 245.836 209.99C245.836 192.321 240.596 175.049 230.78 160.358C220.964 145.667 207.011 134.217 190.687 127.455C174.363 120.693 156.401 118.924 139.071 122.371C121.742 125.818 105.824 134.327 93.3301 146.82C80.8363 159.314 72.3279 175.232 68.8808 192.562C65.4338 209.891 67.2029 227.854 73.9646 244.178C80.7262 260.502 92.1766 274.454 106.868 284.27ZM64.5383 450.286C65.3885 451.384 66.5631 452.186 67.8952 452.578L150.896 477.24C152.383 477.688 153.981 477.592 155.404 476.969L280.365 427.713C281.549 427.202 282.557 426.355 283.264 425.277C283.971 424.199 284.347 422.938 284.345 421.649V367.898C284.344 367.012 284.13 366.139 283.72 365.353C283.31 364.567 282.717 363.891 281.99 363.384C281.263 362.876 280.425 362.552 279.546 362.438C278.667 362.323 277.773 362.423 276.941 362.728L67.4755 440.044C66.1727 440.524 65.0544 441.403 64.2795 442.555C63.5046 443.707 63.1125 445.075 63.159 446.462C63.2054 447.85 63.6881 449.188 64.5383 450.286ZM153.901 210.748L121.605 243.058C119.712 244.961 117.148 246.045 114.464 246.075C111.78 246.106 109.192 245.08 107.257 243.221C106.282 242.277 105.506 241.148 104.971 239.901C104.437 238.654 104.156 237.314 104.145 235.957C104.134 234.6 104.392 233.255 104.905 232C105.419 230.744 106.177 229.603 107.135 228.643L148.351 187.426C149.539 186.24 150.949 185.3 152.5 184.659C154.052 184.018 155.714 183.689 157.393 183.69C159.069 183.69 160.73 184.019 162.279 184.66C163.828 185.301 165.236 186.241 166.421 187.426L205.864 226.842C206.814 227.791 207.567 228.918 208.081 230.158C208.595 231.399 208.859 232.728 208.859 234.07C208.859 235.413 208.595 236.742 208.081 237.982C207.567 239.223 206.814 240.349 205.864 241.298L205.404 241.772C203.484 243.683 200.885 244.756 198.176 244.756C195.467 244.756 192.868 243.683 190.948 241.772L159.924 210.748C159.127 209.951 158.046 209.503 156.919 209.503C156.359 209.502 155.804 209.612 155.286 209.825C154.768 210.039 154.297 210.353 153.901 210.748Z" fill="white" fill-opacity="0.3"/>
</svg>
