<svg width="26" height="40" viewBox="0 0 26 40" fill="none" xmlns="http://www.w3.org/2000/svg">
<path d="M23.1625 0.870117H2.83594C1.73137 0.870117 0.835938 1.76555 0.835938 2.87012V37.1299C0.835938 38.2345 1.73137 39.1299 2.83594 39.1299H23.1625C24.2671 39.1299 25.1625 38.2345 25.1625 37.1299V2.87012C25.1625 1.76555 24.2671 0.870117 23.1625 0.870117Z" fill="#064237"/>
<path d="M21.6094 3.83789H4.39453C3.84225 3.83789 3.39453 4.28561 3.39453 4.83789V29.3218C3.39453 29.8741 3.84225 30.3218 4.39453 30.3218H21.6094C22.1617 30.3218 22.6094 29.8741 22.6094 29.3218V4.83789C22.6094 4.28561 22.1617 3.83789 21.6094 3.83789Z" fill="#43806C"/>
<path d="M13.0028 36.9987C14.1369 36.9987 15.0563 36.0793 15.0563 34.9452C15.0563 33.811 14.1369 32.8916 13.0028 32.8916C11.8686 32.8916 10.9492 33.811 10.9492 34.9452C10.9492 36.0793 11.8686 36.9987 13.0028 36.9987Z" fill="#43806C"/>
</svg>
